<svg width="32" height="32" viewBox="0 0 32 32" fill="none" xmlns="http://www.w3.org/2000/svg">
<rect width="32" height="32" rx="6" fill="white"/>
<rect width="32" height="32" rx="6" fill="#6E8BB7" fill-opacity="0.12"/>
<path fill-rule="evenodd" clip-rule="evenodd" d="M21.707 21.707C21.5195 21.8945 21.2652 21.9998 21 21.9998C20.7349 21.9998 20.4806 21.8945 20.293 21.707L15.293 16.707C15.1056 16.5195 15.0002 16.2652 15.0002 16C15.0002 15.7349 15.1056 15.4805 15.293 15.293L20.293 10.293C20.3853 10.1975 20.4956 10.1213 20.6176 10.0689C20.7396 10.0165 20.8709 9.98892 21.0036 9.98777C21.1364 9.98662 21.2681 10.0119 21.391 10.0622C21.5139 10.1125 21.6255 10.1867 21.7194 10.2806C21.8133 10.3745 21.8876 10.4862 21.9379 10.6091C21.9881 10.732 22.0134 10.8636 22.0123 10.9964C22.0111 11.1292 21.9835 11.2604 21.9311 11.3824C21.8787 11.5044 21.8025 11.6148 21.707 11.707L17.414 16L21.707 20.293C21.8945 20.4805 21.9998 20.7349 21.9998 21C21.9998 21.2652 21.8945 21.5195 21.707 21.707ZM15.707 21.707C15.5195 21.8945 15.2652 21.9998 15 21.9998C14.7349 21.9998 14.4806 21.8945 14.293 21.707L9.29303 16.707C9.10556 16.5195 9.00024 16.2652 9.00024 16C9.00024 15.7349 9.10556 15.4805 9.29303 15.293L14.293 10.293C14.4816 10.1109 14.7342 10.0101 14.9964 10.0123C15.2586 10.0146 15.5094 10.1198 15.6948 10.3052C15.8803 10.4906 15.9854 10.7414 15.9877 11.0036C15.99 11.2658 15.8892 11.5184 15.707 11.707L11.414 16L15.707 20.293C15.8945 20.4805 15.9998 20.7349 15.9998 21C15.9998 21.2652 15.8945 21.5195 15.707 21.707Z" fill="#1A2024"/>
</svg>
