<svg width="28" height="28" viewBox="0 0 28 28" fill="none" xmlns="http://www.w3.org/2000/svg">
<rect x="0.5" y="0.5" width="27" height="27" rx="5.5" fill="white"/>
<rect x="0.5" y="0.5" width="27" height="27" rx="5.5" stroke="#E5E9EB"/>
<path d="M9.99998 18.6667C9.99998 19.4 10.6 20 11.3333 20H16.6666C17.4 20 18 19.4 18 18.6667V12C18 11.2667 17.4 10.6667 16.6666 10.6667H11.3333C10.6 10.6667 9.99998 11.2667 9.99998 12V18.6667ZM18 8.66667H16.3333L15.86 8.19333C15.74 8.07333 15.5666 8 15.3933 8H12.6066C12.4333 8 12.26 8.07333 12.14 8.19333L11.6666 8.66667H9.99998C9.63331 8.66667 9.33331 8.96667 9.33331 9.33333C9.33331 9.7 9.63331 10 9.99998 10H18C18.3666 10 18.6666 9.7 18.6666 9.33333C18.6666 8.96667 18.3666 8.66667 18 8.66667Z" fill="#F76659"/>
</svg>
