<svg width="32" height="32" viewBox="0 0 32 32" fill="none" xmlns="http://www.w3.org/2000/svg">
<rect width="32" height="32" rx="6" fill="#36AD49" fill-opacity="0.05"/>
<g clip-path="url(#clip0_123_476)">
<path d="M20 14.6666L17.3333 12M9.66666 22.3333L11.9229 22.0826C12.1986 22.052 12.3364 22.0367 12.4652 21.995C12.5795 21.958 12.6883 21.9057 12.7886 21.8396C12.9016 21.765 12.9997 21.6669 13.1958 21.4708L22 12.6666C22.7364 11.9303 22.7364 10.7364 22 9.99998C21.2636 9.2636 20.0697 9.2636 19.3333 9.99998L10.5291 18.8042C10.333 19.0003 10.235 19.0983 10.1604 19.2114C10.0943 19.3117 10.042 19.4205 10.005 19.5347C9.96329 19.6636 9.94798 19.8014 9.91735 20.0771L9.66666 22.3333Z" stroke="#36AD49" stroke-width="2" stroke-linecap="round" stroke-linejoin="round"/>
</g>
<defs>
<clipPath id="clip0_123_476">
<rect width="16" height="16" fill="white" transform="translate(8 8)"/>
</clipPath>
</defs>
</svg>
